<?xml version="1.0" encoding="utf-8"?>
<svg viewBox="0 0 500 500" xmlns="http://www.w3.org/2000/svg">
  <path d="M 250.028 0.026 C 250.033 0.026 250.037 0.026 250.041 0.026 C 111.986 0.033 111.972 0.026 250.028 0.026 Z M 365.962 249.999 C 365.868 313.986 365.962 313.892 365.962 249.826 C 365.962 185.761 314.028 133.827 249.963 133.827 C 250.002 133.827 250.043 133.827 250.082 133.827 L 250.082 0.026 C 388.112 0.055 500 111.961 500 249.999 L 365.962 249.999 Z" style="fill: rgb(65, 64, 150);"/>
  <path d="M 250 0 C 250.01 0 250.018 0 250.027 0 L 250.027 133.801 C 249.988 133.801 249.947 133.801 249.908 133.801 C 185.843 133.801 133.909 185.735 133.909 249.8 C 133.909 313.866 133.917 314.03 133.909 249.973 L 0 249.973 C 0.015 111.914 111.938 0 250 0 Z" style="fill: rgb(121, 146, 220);"/>
  <path d="M 499.945 250 C 499.945 388.071 388.016 500 249.945 500 C 111.874 500 -0.055 388.071 -0.055 250 C -0.055 249.99 -0.055 249.982 -0.055 249.973 L 133.854 249.973 C 133.862 314.03 185.794 365.956 249.853 365.956 C 313.913 365.956 365.844 314.03 365.852 249.973 L 499.945 249.973 C 499.945 249.982 499.945 249.99 499.945 250 Z" style="fill: rgb(183, 183, 183);"/>
</svg>